<svg xmlns="http://www.w3.org/2000/svg" width="151.92" height="117.68" viewBox="0 0 151.92 117.68">
  <path id="패스_5124" data-name="패스 5124" d="M-5.44-55.68q0,28-10.64,42.96T-45.44,2.24q-18.72,0-29.36-14.96T-85.44-55.68a97.889,97.889,0,0,1,2.8-24.64A54.254,54.254,0,0,1-74.56-98.4a36.01,36.01,0,0,1,12.64-11.2,35.085,35.085,0,0,1,16.48-3.84q18.72,0,29.36,14.96T-5.44-55.68Zm-24.32,0a130.18,130.18,0,0,0-.8-15.12,54.409,54.409,0,0,0-2.56-11.76,18.25,18.25,0,0,0-4.8-7.68,10.866,10.866,0,0,0-7.52-2.72,10.574,10.574,0,0,0-7.44,2.72,19.362,19.362,0,0,0-4.8,7.68A51.193,51.193,0,0,0-60.32-70.8a130.177,130.177,0,0,0-.8,15.12,132.284,132.284,0,0,0,.8,15.2,51.292,51.292,0,0,0,2.64,11.84,19.362,19.362,0,0,0,4.8,7.68,10.574,10.574,0,0,0,7.44,2.72,10.866,10.866,0,0,0,7.52-2.72,18.25,18.25,0,0,0,4.8-7.68,54.5,54.5,0,0,0,2.56-11.84A132.284,132.284,0,0,0-29.76-55.68ZM11.2-87.84q4.64-1.92,9.68-4.4t9.84-5.44q4.8-2.96,9.2-6.24a63.154,63.154,0,0,0,7.92-6.96H64.48V0H40.64V-79.84A72.58,72.58,0,0,1,29.92-74Q24-71.36,18.4-69.44Z" transform="translate(86.44 114.44)" fill="#fff" stroke="#ffdbc8" stroke-width="2"/>
</svg>
