<svg xmlns="http://www.w3.org/2000/svg" width="170.16" height="117.68" viewBox="0 0 170.16 117.68">
  <path id="패스_5124" data-name="패스 5124" d="M-5.44-55.68q0,28-10.64,42.96T-45.44,2.24q-18.72,0-29.36-14.96T-85.44-55.68a97.889,97.889,0,0,1,2.8-24.64A54.254,54.254,0,0,1-74.56-98.4a36.01,36.01,0,0,1,12.64-11.2,35.085,35.085,0,0,1,16.48-3.84q18.72,0,29.36,14.96T-5.44-55.68Zm-24.32,0a130.18,130.18,0,0,0-.8-15.12,54.409,54.409,0,0,0-2.56-11.76,18.25,18.25,0,0,0-4.8-7.68,10.866,10.866,0,0,0-7.52-2.72,10.574,10.574,0,0,0-7.44,2.72,19.362,19.362,0,0,0-4.8,7.68A51.193,51.193,0,0,0-60.32-70.8a130.177,130.177,0,0,0-.8,15.12,132.284,132.284,0,0,0,.8,15.2,51.292,51.292,0,0,0,2.64,11.84,19.362,19.362,0,0,0,4.8,7.68,10.574,10.574,0,0,0,7.44,2.72,10.866,10.866,0,0,0,7.52-2.72,18.25,18.25,0,0,0,4.8-7.68,54.5,54.5,0,0,0,2.56-11.84A132.284,132.284,0,0,0-29.76-55.68ZM79.36-81.76a29.352,29.352,0,0,1-2.4,11.68,53.929,53.929,0,0,1-6.24,10.8,88.5,88.5,0,0,1-8.64,10q-4.8,4.8-9.44,9.12-2.4,2.24-5.2,5.04t-5.36,5.68q-2.56,2.88-4.56,5.36A13.3,13.3,0,0,0,35.04-20H82.72V0H8.8a25.791,25.791,0,0,1-.32-4.48q0-2.72,0-3.84A38.658,38.658,0,0,1,10.96-22.4a52.641,52.641,0,0,1,6.48-11.92,75.042,75.042,0,0,1,9.04-10.32q5.04-4.8,10-9.6,3.84-3.68,7.2-6.96a79.342,79.342,0,0,0,5.92-6.4,29.2,29.2,0,0,0,4-6.24,14.949,14.949,0,0,0,1.44-6.32q0-7.04-4-9.92a16.535,16.535,0,0,0-9.92-2.88,23.577,23.577,0,0,0-8.08,1.36,40.888,40.888,0,0,0-6.88,3.2,42.366,42.366,0,0,0-5.36,3.68q-2.24,1.84-3.36,2.96L5.6-98.4A60.38,60.38,0,0,1,22-109.2a48.091,48.091,0,0,1,20.08-4.24,55.72,55.72,0,0,1,16.8,2.24,31.413,31.413,0,0,1,11.6,6.32,24.507,24.507,0,0,1,6.72,9.92A37.86,37.86,0,0,1,79.36-81.76Z" transform="translate(86.44 114.44)" fill="#fff" stroke="#ffdbc8" stroke-width="2"/>
</svg>
