<svg xmlns="http://www.w3.org/2000/svg" width="168.24" height="117.84" viewBox="0 0 168.24 117.84">
  <path id="패스_5124" data-name="패스 5124" d="M-5.44-55.68q0,28-10.64,42.96T-45.44,2.24q-18.72,0-29.36-14.96T-85.44-55.68a97.889,97.889,0,0,1,2.8-24.64A54.254,54.254,0,0,1-74.56-98.4a36.01,36.01,0,0,1,12.64-11.2,35.085,35.085,0,0,1,16.48-3.84q18.72,0,29.36,14.96T-5.44-55.68Zm-24.32,0a130.18,130.18,0,0,0-.8-15.12,54.409,54.409,0,0,0-2.56-11.76,18.25,18.25,0,0,0-4.8-7.68,10.866,10.866,0,0,0-7.52-2.72,10.574,10.574,0,0,0-7.44,2.72,19.362,19.362,0,0,0-4.8,7.68A51.193,51.193,0,0,0-60.32-70.8a130.177,130.177,0,0,0-.8,15.12,132.284,132.284,0,0,0,.8,15.2,51.292,51.292,0,0,0,2.64,11.84,19.362,19.362,0,0,0,4.8,7.68,10.574,10.574,0,0,0,7.44,2.72,10.866,10.866,0,0,0,7.52-2.72,18.25,18.25,0,0,0,4.8-7.68,54.5,54.5,0,0,0,2.56-11.84A132.284,132.284,0,0,0-29.76-55.68ZM36.48,2.4a78.836,78.836,0,0,1-9.12-.56q-4.8-.56-9.28-1.52T9.92-1.76A47,47,0,0,1,4.16-3.84L8.8-23.68q4.16,1.76,10.64,3.76a55.271,55.271,0,0,0,16.08,2q11.04,0,16.16-4.16a13.68,13.68,0,0,0,5.12-11.2,13.538,13.538,0,0,0-1.84-7.28,14.064,14.064,0,0,0-5.04-4.8,22.391,22.391,0,0,0-7.6-2.56,57.969,57.969,0,0,0-9.36-.72H23.68v-19.2H34.24a35.433,35.433,0,0,0,6.8-.64,18.15,18.15,0,0,0,5.84-2.16,11.31,11.31,0,0,0,4.08-4.16,13.153,13.153,0,0,0,1.52-6.64,10.463,10.463,0,0,0-1.28-5.28,11.49,11.49,0,0,0-3.28-3.68,14.3,14.3,0,0,0-4.64-2.16,20.283,20.283,0,0,0-5.36-.72A37.657,37.657,0,0,0,25.2-91.2a53.111,53.111,0,0,0-10.64,5.12L6.08-103.52q2.56-1.6,6-3.36a59.211,59.211,0,0,1,7.6-3.2,69.456,69.456,0,0,1,8.88-2.4,50.1,50.1,0,0,1,10-.96,54.784,54.784,0,0,1,16.88,2.316,31.733,31.733,0,0,1,11.76,6.55,26.4,26.4,0,0,1,6.88,9.905,33.411,33.411,0,0,1,2.24,12.381,24.425,24.425,0,0,1-3.68,12.7,24.259,24.259,0,0,1-9.92,9.346A28.752,28.752,0,0,1,76.08-49.746,29.14,29.14,0,0,1,80.8-33.005a38.291,38.291,0,0,1-2.56,14.178,28.593,28.593,0,0,1-8,11.214A38.369,38.369,0,0,1,56.4-.244,66.677,66.677,0,0,1,36.48,2.4Z" transform="translate(86.44 114.44)" fill="#fff" stroke="#8ba2ea" stroke-width="2"/>
</svg>
