<svg xmlns="http://www.w3.org/2000/svg" width="173.68" height="117.68" viewBox="0 0 173.68 117.68">
  <path id="패스_5124" data-name="패스 5124" d="M-5.44-55.68q0,28-10.64,42.96T-45.44,2.24q-18.72,0-29.36-14.96T-85.44-55.68a97.889,97.889,0,0,1,2.8-24.64A54.254,54.254,0,0,1-74.56-98.4a36.01,36.01,0,0,1,12.64-11.2,35.085,35.085,0,0,1,16.48-3.84q18.72,0,29.36,14.96T-5.44-55.68Zm-24.32,0a130.18,130.18,0,0,0-.8-15.12,54.409,54.409,0,0,0-2.56-11.76,18.25,18.25,0,0,0-4.8-7.68,10.866,10.866,0,0,0-7.52-2.72,10.574,10.574,0,0,0-7.44,2.72,19.362,19.362,0,0,0-4.8,7.68A51.193,51.193,0,0,0-60.32-70.8a130.177,130.177,0,0,0-.8,15.12,132.284,132.284,0,0,0,.8,15.2,51.292,51.292,0,0,0,2.64,11.84,19.362,19.362,0,0,0,4.8,7.68,10.574,10.574,0,0,0,7.44,2.72,10.866,10.866,0,0,0,7.52-2.72,18.25,18.25,0,0,0,4.8-7.68,54.5,54.5,0,0,0,2.56-11.84A132.284,132.284,0,0,0-29.76-55.68Zm80.8-26.08Q44.8-73.6,37.76-64A121.956,121.956,0,0,0,25.92-44.32H51.04ZM74.4-110.88v66.56H86.24V-24.8H74.4V0H51.04V-24.8H3.2V-42.24Q6.72-49.28,12-58.16T23.76-76.4q6.48-9.36,13.68-18.32a200.026,200.026,0,0,1,14.4-16.16Z" transform="translate(86.44 114.44)" fill="#fff" stroke="#8ba2ea" stroke-width="2"/>
</svg>
