<svg id="bg" xmlns="http://www.w3.org/2000/svg" width="1920" height="4600" viewBox="0 0 1920 4600">
  <rect id="사각형_667" data-name="사각형 667" width="1" height="4600" transform="translate(1160)" fill="#f4f4f4"/>
  <rect id="사각형_679" data-name="사각형 679" width="1" height="4600" transform="translate(356)" fill="#f4f4f4"/>
  <rect id="사각형_668" data-name="사각형 668" width="1" height="4600" transform="translate(1361)" fill="#f4f4f4"/>
  <rect id="사각형_680" data-name="사각형 680" width="1" height="4600" transform="translate(557)" fill="#f4f4f4"/>
  <rect id="사각형_684" data-name="사각형 684" width="1" height="4600" transform="translate(155)" fill="#f4f4f4"/>
  <rect id="사각형_669" data-name="사각형 669" width="1" height="4600" transform="translate(1562)" fill="#f4f4f4"/>
  <rect id="사각형_681" data-name="사각형 681" width="1" height="4600" transform="translate(758)" fill="#f4f4f4"/>
  <rect id="사각형_670" data-name="사각형 670" width="1" height="4600" transform="translate(1763)" fill="#f4f4f4"/>
  <rect id="사각형_682" data-name="사각형 682" width="1" height="4600" transform="translate(959)" fill="#f4f4f4"/>
  <rect id="사각형_671" data-name="사각형 671" width="1920" height="1" transform="translate(0 200)" fill="#f4f4f4"/>
  <rect id="사각형_672" data-name="사각형 672" width="1920" height="1" transform="translate(0 401)" fill="#f4f4f4"/>
  <rect id="사각형_673" data-name="사각형 673" width="1920" height="1" transform="translate(0 602)" fill="#f4f4f4"/>
  <rect id="사각형_674" data-name="사각형 674" width="1920" height="1" transform="translate(0 803)" fill="#f4f4f4"/>
  <rect id="사각형_675" data-name="사각형 675" width="1920" height="1" transform="translate(0 1004)" fill="#f4f4f4"/>
  <rect id="사각형_686" data-name="사각형 686" width="1920" height="1" transform="translate(0 1808)" fill="#f4f4f4"/>
  <rect id="사각형_690" data-name="사각형 690" width="1920" height="1" transform="translate(0 2612)" fill="#f4f4f4"/>
  <rect id="사각형_694" data-name="사각형 694" width="1920" height="1" transform="translate(0 3416)" fill="#f4f4f4"/>
  <rect id="사각형_676" data-name="사각형 676" width="1920" height="1" transform="translate(0 1205)" fill="#f4f4f4"/>
  <rect id="사각형_687" data-name="사각형 687" width="1920" height="1" transform="translate(0 2009)" fill="#f4f4f4"/>
  <rect id="사각형_691" data-name="사각형 691" width="1920" height="1" transform="translate(0 2813)" fill="#f4f4f4"/>
  <rect id="사각형_695" data-name="사각형 695" width="1920" height="1" transform="translate(0 3617)" fill="#f4f4f4"/>
  <rect id="사각형_677" data-name="사각형 677" width="1920" height="1" transform="translate(0 1406)" fill="#f4f4f4"/>
  <rect id="사각형_688" data-name="사각형 688" width="1920" height="1" transform="translate(0 2210)" fill="#f4f4f4"/>
  <rect id="사각형_692" data-name="사각형 692" width="1920" height="1" transform="translate(0 3014)" fill="#f4f4f4"/>
  <rect id="사각형_696" data-name="사각형 696" width="1920" height="1" transform="translate(0 3818)" fill="#f4f4f4"/>
  <rect id="사각형_699" data-name="사각형 699" width="1920" height="1" transform="translate(0 4220)" fill="#f4f4f4"/>
  <rect id="사각형_678" data-name="사각형 678" width="1920" height="1" transform="translate(0 1607)" fill="#f4f4f4"/>
  <rect id="사각형_689" data-name="사각형 689" width="1920" height="1" transform="translate(0 2411)" fill="#f4f4f4"/>
  <rect id="사각형_693" data-name="사각형 693" width="1920" height="1" transform="translate(0 3215)" fill="#f4f4f4"/>
  <rect id="사각형_697" data-name="사각형 697" width="1920" height="1" transform="translate(0 4019)" fill="#f4f4f4"/>
  <rect id="사각형_698" data-name="사각형 698" width="1920" height="1" transform="translate(0 4421)" fill="#f4f4f4"/>
</svg>
