<svg xmlns="http://www.w3.org/2000/svg" xmlns:xlink="http://www.w3.org/1999/xlink" width="270" height="270" viewBox="0 0 270 270">
  <defs>
    <linearGradient id="linear-gradient" x1="0.265" y1="0.289" x2="0.894" y2="1.172" gradientUnits="objectBoundingBox">
      <stop offset="0" stop-color="#bac5f5"/>
      <stop offset="1" stop-color="#d59cd2"/>
    </linearGradient>
  </defs>
  <path id="img_feature_2" d="M132,267a3,3,0,1,1,3,3A3,3,0,0,1,132,267Zm34.266-3.722a3,3,0,1,1,2.895,2.224A3,3,0,0,1,166.266,263.278Zm-66.2,2.121a3,3,0,1,1,.779.1A3,3,0,0,1,100.061,265.4ZM198.4,250.816a3,3,0,1,1,2.6,1.5A3,3,0,0,1,198.4,250.816Zm-130.9,1.1a3,3,0,1,1,1.5.4A3,3,0,0,1,67.5,251.914ZM39.541,230.459a3,3,0,1,1,2.122.879A3,3,0,0,1,39.541,230.459Zm186.677,0a3,3,0,1,1,2.122.878A3,3,0,0,1,226.218,230.459ZM18.086,202.5a3,3,0,1,1,2.6,1.5A3,3,0,0,1,18.086,202.5Zm229.73,1.1a3,3,0,1,1,1.5.4A3,3,0,0,1,247.815,203.6ZM4.6,169.94A3,3,0,1,1,7.5,172.164,3,3,0,0,1,4.6,169.94Zm257.126,2.121a3,3,0,1,1,.778.1A3,3,0,0,1,261.727,172.061ZM264,135a3,3,0,1,1,3,3A3,3,0,0,1,264,135ZM0,135a3,3,0,1,1,3,3A3,3,0,0,1,0,135Zm259.6-33.388a3,3,0,1,1,2.9,2.224A3,3,0,0,1,259.6,101.612ZM6.723,103.733a3,3,0,1,1,.778.1A3,3,0,0,1,6.723,103.733ZM246.718,70.5a3,3,0,1,1,2.6,1.5A3,3,0,0,1,246.718,70.5ZM19.184,71.6a3,3,0,1,1,1.5.4A3,3,0,0,1,19.184,71.6ZM226.217,43.783a3,3,0,1,1,2.121.878A3,3,0,0,1,226.217,43.783Zm-186.674,0a3,3,0,1,1,2.121.879A3,3,0,0,1,39.542,43.782ZM199.5,23.283a3,3,0,1,1,1.5.4A3,3,0,0,1,199.5,23.283Zm-133.1-1.1a3,3,0,1,1,2.6,1.5A3,3,0,0,1,66.4,22.185ZM97.938,8.274a3,3,0,1,1,2.9,2.224A3,3,0,0,1,97.938,8.274ZM168.389,10.4a3,3,0,1,1,.778.1A3,3,0,0,1,168.389,10.4ZM132,3a3,3,0,1,1,3,3A3,3,0,0,1,132,3Z" fill="url(#linear-gradient)"/>
</svg>
