<?xml version="1.0" encoding="UTF-8"?><svg xmlns="http://www.w3.org/2000/svg" xmlns:xlink="http://www.w3.org/1999/xlink" viewBox="0 0 213 213"><defs><style>.e{fill:#fff;}.f{fill:url(#d);}.g{fill:none;stroke:#fff;stroke-miterlimit:10;stroke-width:4px;}</style><linearGradient id="d" x1="34" y1="37.94" x2="181.2" y2="177.14" gradientTransform="matrix(1, 0, 0, 1, 0, 0)" gradientUnits="userSpaceOnUse"><stop offset="0" stop-color="#d3606b"/><stop offset=".27" stop-color="#a14aa0"/><stop offset=".55" stop-color="#6c33db"/><stop offset="1" stop-color="#5a81ff"/></linearGradient></defs><g id="a"/><g id="b"><g id="c"><g><circle class="f" cx="106.5" cy="106.5" r="106.5"/><circle class="g" cx="106.5" cy="106.5" r="83.5"/><g><path class="e" d="M50.89,138.11c3.75,1,13.85-.21,18.36-.83,1.3-.18,2.32-1.2,2.51-2.51,1.11-7.8,4.35-26.16,6.78-39.71-3.09-10.09-5.86-19.93-8.42-27.34-11.33,11.61-23.17,69.34-19.24,70.39Z"/><path class="e" d="M141.68,66.68c-2.78,6.59-5.36,15.16-8,24.15,2.47,13.66,6.32,35.3,7.55,43.95,.18,1.3,1.21,2.33,2.51,2.51,4.51,.62,14.61,1.82,18.36,.83,4.07-1.08-8.75-62.88-20.42-71.43Z"/><path class="e" d="M73.28,65.69h.4c14.57,0,25.88,41.61,32.99,41.61,7.45,0,12.76-41.61,31.88-41.61h.52c-10.55,14.24-16.41,69.15-32.76,69.15-16.53,0-25.57-56.11-33.04-69.15Z"/></g></g></g></g></svg>