<svg xmlns="http://www.w3.org/2000/svg" xmlns:xlink="http://www.w3.org/1999/xlink" width="410" height="1021.197" viewBox="0 0 410 1021.197">
  <defs>
    <filter id="타원_15" x="62.023" y="320.022" width="285.953" height="285.953" filterUnits="userSpaceOnUse">
      <feOffset input="SourceAlpha"/>
      <feGaussianBlur stdDeviation="10" result="blur"/>
      <feFlood flood-color="#cfc1e1"/>
      <feComposite operator="in" in2="blur"/>
      <feComposite in="SourceGraphic"/>
    </filter>
    <linearGradient id="linear-gradient" x1="0.084" y1="0.061" x2="0.952" y2="0.878" gradientUnits="objectBoundingBox">
      <stop offset="0" stop-color="#caaaff"/>
      <stop offset="1" stop-color="#9887ff"/>
    </linearGradient>
    <linearGradient id="linear-gradient-2" x1="-0.015" y1="0.5" x2="1.02" y2="0.5" gradientUnits="objectBoundingBox">
      <stop offset="0" stop-color="#a9b5fe"/>
      <stop offset="0.316" stop-color="#c78bf8"/>
      <stop offset="0.499" stop-color="#e38ce9"/>
      <stop offset="0.676" stop-color="#b39bfd"/>
      <stop offset="1" stop-color="#adc2fb"/>
    </linearGradient>
    <linearGradient id="linear-gradient-3" x1="0.16" y1="0.178" x2="0.851" y2="0.832" gradientUnits="objectBoundingBox">
      <stop offset="0" stop-color="#d3606b"/>
      <stop offset="0.27" stop-color="#a14aa0"/>
      <stop offset="0.55" stop-color="#6c33db"/>
      <stop offset="1" stop-color="#5a81ff"/>
    </linearGradient>
    <linearGradient id="linear-gradient-4" x1="-0.068" y1="-0.228" x2="1" y2="1.318" gradientUnits="objectBoundingBox">
      <stop offset="0" stop-color="#d3606b"/>
      <stop offset="0.325" stop-color="#843dc0"/>
      <stop offset="0.644" stop-color="#6a3cdf"/>
      <stop offset="1" stop-color="#5a81ff"/>
    </linearGradient>
    <linearGradient id="linear-gradient-5" x1="-0.288" x2="1.234" y2="1" gradientUnits="objectBoundingBox">
      <stop offset="0" stop-color="#7c5bff"/>
      <stop offset="1" stop-color="#d45eb0"/>
    </linearGradient>
    <linearGradient id="linear-gradient-8" y1="-0.163" x2="1.066" y2="1.323" gradientUnits="objectBoundingBox">
      <stop offset="0" stop-color="#5b56ff"/>
      <stop offset="1" stop-color="#d851ff"/>
    </linearGradient>
    <linearGradient id="linear-gradient-9" y1="-0.25" x2="1.063" y2="1" gradientUnits="objectBoundingBox">
      <stop offset="0" stop-color="#905aff"/>
      <stop offset="0.473" stop-color="#1f3edb"/>
      <stop offset="1" stop-color="#9a9dff"/>
    </linearGradient>
    <linearGradient id="linear-gradient-10" y1="-0.22" x2="1.015" y2="1" gradientUnits="objectBoundingBox">
      <stop offset="0" stop-color="#ff72e8"/>
      <stop offset="0.519" stop-color="#3d6ad4"/>
      <stop offset="1" stop-color="#9754ff"/>
    </linearGradient>
  </defs>
  <g id="그룹_604" data-name="그룹 604" transform="translate(-95 -5203.517)">
    <g transform="matrix(1, 0, 0, 1, 95, 5203.52)" filter="url(#타원_15)">
      <ellipse id="타원_15-2" data-name="타원 15" cx="112.977" cy="112.976" rx="112.977" ry="112.976" transform="translate(92.02 350.02)" fill="#fff" opacity="0.3"/>
    </g>
    <rect id="사각형_711" data-name="사각형 711" width="400" height="220" rx="110" transform="translate(100 5236.484)" opacity="0.2" fill="url(#linear-gradient)"/>
    <g id="그룹_531" data-name="그룹 531" transform="translate(6431.484 5764.714) rotate(90)">
      <rect id="사각형_701" data-name="사각형 701" width="320" height="410" rx="87" transform="translate(140 5926.484)" opacity="0.2" fill="url(#linear-gradient-2)"/>
      <g id="그룹_530" data-name="그룹 530" transform="translate(210)">
        <g id="그룹_525" data-name="그룹 525">
          <circle id="타원_7" data-name="타원 7" cx="80" cy="80" r="80" transform="translate(-60 5936.484)" fill="#658eff" opacity="0.5"/>
          <text id="Adversting" transform="translate(27 6016.484) rotate(-90)" fill="#fff" font-size="18" font-family="Ubuntu-Light, Ubuntu" font-weight="300"><tspan x="-43.38" y="0">Adversting</tspan></text>
        </g>
        <g id="그룹_526" data-name="그룹 526">
          <circle id="타원_8" data-name="타원 8" cx="80" cy="80" r="80" transform="translate(80 5936.484)" fill="#a265ff" opacity="0.5"/>
          <text id="Brand_Information" data-name="Brand
Information" transform="translate(156 6016.484) rotate(-90)" fill="#fff" font-size="18" font-family="Ubuntu-Light, Ubuntu" font-weight="300"><tspan x="-23.985" y="0">Brand</tspan><tspan x="-47.664" y="22">Information</tspan></text>
        </g>
        <g id="그룹_527" data-name="그룹 527" transform="translate(-211 118)">
          <circle id="타원_9" data-name="타원 9" cx="80" cy="80" r="80" transform="translate(220 5936.484)" fill="#ff65d6" opacity="0.5"/>
          <text id="NFT_Marketplace" data-name="NFT
Marketplace" transform="translate(296 6016.484) rotate(-90)" fill="#fff" font-size="18" font-family="Ubuntu-Light, Ubuntu" font-weight="300"><tspan x="-16.119" y="0">NFT</tspan><tspan x="-49.662" y="22">Marketplace</tspan></text>
        </g>
        <g id="그룹_528" data-name="그룹 528" transform="translate(-420 230)">
          <circle id="타원_10" data-name="타원 10" cx="80" cy="80" r="80" transform="translate(360 5936.484)" fill="#a265ff" opacity="0.5"/>
          <text id="Participate_in_Gavernance" data-name="Participate in
Gavernance" transform="translate(436 6016.484) rotate(-90)" fill="#fff" font-size="18" font-family="Ubuntu-Light, Ubuntu" font-weight="300"><tspan x="-52.641" y="0">Participate in</tspan><tspan x="-47.016" y="22">Gavernance</tspan></text>
        </g>
        <g id="그룹_529" data-name="그룹 529" transform="translate(-420 230)">
          <circle id="타원_11" data-name="타원 11" cx="80" cy="80" r="80" transform="translate(500 5936.484)" fill="#658eff" opacity="0.5"/>
          <text id="Donation_or_Sponsorship" data-name="Donation or
Sponsorship" transform="translate(576 6016.484) rotate(-90)" fill="#fff" font-size="18" font-family="Ubuntu-Light, Ubuntu" font-weight="300"><tspan x="-47.889" y="0">Donation or</tspan><tspan x="-49.068" y="22">Sponsorship</tspan></text>
        </g>
      </g>
    </g>
    <g id="레이어_2" data-name="레이어 2" transform="translate(203.925 5570.415)" opacity="0.1">
      <ellipse id="타원_12" data-name="타원 12" cx="96.075" cy="96.075" rx="96.075" ry="96.075" transform="translate(0 0)" fill="#fff" stroke="#3314a8" stroke-linecap="round" stroke-linejoin="round" stroke-width="2" stroke-dasharray="6"/>
      <g id="레이어_1" data-name="레이어 1" transform="translate(1.186 1.186)">
        <g id="그룹_3" data-name="그룹 3">
          <ellipse id="타원_1" data-name="타원 1" cx="94.889" cy="94.889" rx="94.889" ry="94.889" fill="url(#linear-gradient-3)"/>
          <path id="패스_3" data-name="패스 3" d="M97.179,173.357a76.178,76.178,0,1,1,76.179-76.178A76.265,76.265,0,0,1,97.179,173.357Zm0-148.793a72.615,72.615,0,1,0,72.615,72.615A72.7,72.7,0,0,0,97.179,24.564Z" transform="translate(-2.289 -2.289)" fill="#fff"/>
          <g id="그룹_2" data-name="그룹 2" transform="translate(44.647 58.528)">
            <path id="패스_4" data-name="패스 4" d="M50.805,130.436c3.341.891,12.34-.187,16.358-.74A2.627,2.627,0,0,0,69.4,127.46c.989-6.95,3.876-23.308,6.041-35.381-2.753-8.99-5.221-17.757-7.5-24.359C57.844,78.064,47.295,129.5,50.8,130.436Z" transform="translate(-50.11 -65.911)" fill="#fff"/>
            <path id="패스_5" data-name="패스 5" d="M140.808,66.68A215.763,215.763,0,0,0,133.68,88.2c2.2,12.171,5.631,31.451,6.727,39.158a2.627,2.627,0,0,0,2.236,2.236c4.018.552,13.017,1.622,16.358.74,3.626-.962-7.8-56.025-18.194-63.642Z" transform="translate(-59.221 -65.798)" fill="#fff"/>
            <path id="패스_6" data-name="패스 6" d="M73.279,65.69h.356c12.982,0,23.059,37.074,29.393,37.074,6.638,0,11.369-37.074,28.4-37.074h.463c-9.4,12.688-14.621,61.611-29.188,61.611C87.98,127.3,79.926,77.308,73.27,65.69Z" transform="translate(-52.635 -65.69)" fill="#fff"/>
          </g>
        </g>
      </g>
    </g>
    <path id="패스_3824" data-name="패스 3824" d="M-56.192-3.808a7.2,7.2,0,0,0,1.744-.176,3.215,3.215,0,0,0,1.1-.48,1.607,1.607,0,0,0,.576-.72,2.567,2.567,0,0,0,.16-.928A2.144,2.144,0,0,0-53.632-7.92a14.632,14.632,0,0,0-3.52-1.552q-1.088-.384-2.176-.88A8.021,8.021,0,0,1-61.28-11.6a5.97,5.97,0,0,1-1.408-1.824,5.713,5.713,0,0,1-.544-2.608,6.458,6.458,0,0,1,.576-2.768,5.909,5.909,0,0,1,1.632-2.1,7.468,7.468,0,0,1,2.56-1.328,11.491,11.491,0,0,1,3.392-.464,13.812,13.812,0,0,1,3.872.48,13.836,13.836,0,0,1,2.688,1.056l-1.44,3.936a13.639,13.639,0,0,0-2.064-.848,8.938,8.938,0,0,0-2.736-.368,5.019,5.019,0,0,0-2.576.5,1.674,1.674,0,0,0-.784,1.52,1.755,1.755,0,0,0,.288,1.024,2.8,2.8,0,0,0,.816.752,7.179,7.179,0,0,0,1.216.608q.688.272,1.52.56,1.728.64,3.008,1.264a8.033,8.033,0,0,1,2.128,1.456A5.273,5.273,0,0,1-47.872-8.8a7.843,7.843,0,0,1,.416,2.72,5.777,5.777,0,0,1-2.176,4.816Q-51.808.448-56.192.448A18.175,18.175,0,0,1-58.848.272a17.142,17.142,0,0,1-2.1-.432A12.022,12.022,0,0,1-62.512-.7a11.906,11.906,0,0,1-1.1-.544l1.408-3.968a12.554,12.554,0,0,0,2.448.976A12.7,12.7,0,0,0-56.192-3.808Zm28-4.64a10.945,10.945,0,0,1-.576,3.632A7.891,7.891,0,0,1-30.432-2,7.489,7.489,0,0,1-33.04-.192a8.7,8.7,0,0,1-3.408.64,8.617,8.617,0,0,1-3.376-.64A7.489,7.489,0,0,1-42.432-2a8.278,8.278,0,0,1-1.7-2.816,10.422,10.422,0,0,1-.608-3.632,10.051,10.051,0,0,1,.624-3.616,8.2,8.2,0,0,1,1.728-2.784A7.761,7.761,0,0,1-39.76-16.64a8.448,8.448,0,0,1,3.312-.64,8.532,8.532,0,0,1,3.344.64A7.593,7.593,0,0,1-30.5-14.848a8.133,8.133,0,0,1,1.7,2.784A10.288,10.288,0,0,1-28.192-8.448Zm-4.864,0a5.994,5.994,0,0,0-.88-3.472,2.878,2.878,0,0,0-2.512-1.264,2.918,2.918,0,0,0-2.528,1.264,5.913,5.913,0,0,0-.9,3.472,6.067,6.067,0,0,0,.9,3.5,2.9,2.9,0,0,0,2.528,1.3,2.856,2.856,0,0,0,2.512-1.3A6.152,6.152,0,0,0-33.056-8.448Zm7.744.032a9.922,9.922,0,0,1,.592-3.44,8.22,8.22,0,0,1,1.712-2.816,8.17,8.17,0,0,1,2.72-1.9,8.975,8.975,0,0,1,3.648-.7,11.774,11.774,0,0,1,2.464.24A11.994,11.994,0,0,1-12-16.352l-.992,3.808a12.017,12.017,0,0,0-1.472-.448,7.693,7.693,0,0,0-1.792-.192,3.777,3.777,0,0,0-3.152,1.312,5.4,5.4,0,0,0-1.04,3.456,5.6,5.6,0,0,0,.976,3.52,4.088,4.088,0,0,0,3.408,1.248,11.693,11.693,0,0,0,1.856-.16,7.89,7.89,0,0,0,1.824-.512l.672,3.9a11.186,11.186,0,0,1-2.08.608,13.72,13.72,0,0,1-2.752.256A10.358,10.358,0,0,1-20.512-.24a7.475,7.475,0,0,1-2.736-1.872,7.3,7.3,0,0,1-1.568-2.8A11.889,11.889,0,0,1-25.312-8.416ZM-3.744,0H-8.512V-16.832h4.768ZM-3.3-21.7a2.617,2.617,0,0,1-.848,2.064,2.916,2.916,0,0,1-2,.752,2.916,2.916,0,0,1-2-.752A2.617,2.617,0,0,1-8.992-21.7a2.617,2.617,0,0,1,.848-2.064,2.916,2.916,0,0,1,2-.752,2.916,2.916,0,0,1,2,.752A2.617,2.617,0,0,1-3.3-21.7ZM7.168-3.328q.7,0,1.344-.032a9.351,9.351,0,0,0,1.024-.1V-7.072q-.288-.064-.864-.128a9.622,9.622,0,0,0-1.056-.064,9.45,9.45,0,0,0-1.264.08,3.3,3.3,0,0,0-1.04.3,1.785,1.785,0,0,0-.7.608,1.694,1.694,0,0,0-.256.96A1.635,1.635,0,0,0,5.1-3.76,4.156,4.156,0,0,0,7.168-3.328ZM6.784-17.28a11.042,11.042,0,0,1,3.52.48,5.467,5.467,0,0,1,2.256,1.376,5.057,5.057,0,0,1,1.2,2.176,10.733,10.733,0,0,1,.352,2.848V-.48q-1.024.224-2.848.528a27.367,27.367,0,0,1-4.416.3A14,14,0,0,1,3.888.064,6.424,6.424,0,0,1,1.6-.88,4.32,4.32,0,0,1,.128-2.592,5.909,5.909,0,0,1-.384-5.184a4.912,4.912,0,0,1,.592-2.5A4.556,4.556,0,0,1,1.792-9.312a7.158,7.158,0,0,1,2.272-.88,12.746,12.746,0,0,1,2.656-.272,15.079,15.079,0,0,1,1.648.08,7.336,7.336,0,0,1,1.168.208v-.448A2.639,2.639,0,0,0,8.8-12.576a3.564,3.564,0,0,0-2.56-.736,16.3,16.3,0,0,0-2.4.176,10.3,10.3,0,0,0-2.048.5l-.608-3.84q.416-.128,1.04-.272t1.36-.256q.736-.112,1.552-.192T6.784-17.28ZM25.152.32a11.912,11.912,0,0,1-3.376-.448A5,5,0,0,1,19.728-1.3,3.875,3.875,0,0,1,18.7-3.12a9.842,9.842,0,0,1-.272-2.416V-24.064l4.768-.768V-6.5a6.282,6.282,0,0,0,.1,1.152,1.988,1.988,0,0,0,.368.864,1.953,1.953,0,0,0,.784.576,4.3,4.3,0,0,0,1.376.288ZM27.1-11.712h9.28v4.32H27.1ZM39.744,0V-22.176H54.592v4.192H44.736v4.64H53.5v4.192H44.736V0ZM62.56,0H57.792V-16.832H62.56Zm.448-21.7a2.617,2.617,0,0,1-.848,2.064,2.916,2.916,0,0,1-2,.752,2.916,2.916,0,0,1-2-.752,2.617,2.617,0,0,1-.848-2.064,2.617,2.617,0,0,1,.848-2.064,2.916,2.916,0,0,1,2-.752,2.916,2.916,0,0,1,2,.752A2.617,2.617,0,0,1,63.008-21.7Z" transform="translate(300 5678.484)" fill="url(#linear-gradient-4)"/>
    <path id="합치기_1" data-name="합치기 1" d="M6.836,119.734a.5.5,0,0,1-.118-.088L.354,113.282a.5.5,0,0,1,.707-.707l5.717,5.717V.5A.5.5,0,0,1,7.7.239a.5.5,0,0,1,.179.115l6.364,6.364a.5.5,0,0,1-.707.707L7.778,1.662V119.5a.5.5,0,0,1-.942.233Z" transform="translate(293.222 5756.484)" fill="url(#linear-gradient-5)"/>
    <path id="합치기_2" data-name="합치기 2" d="M6.836,119.734a.5.5,0,0,1-.118-.088L.354,113.282a.5.5,0,0,1,.707-.707l5.717,5.717V.5A.5.5,0,0,1,7.7.239a.5.5,0,0,1,.179.115l6.364,6.364a.5.5,0,0,1-.707.707L7.778,1.662V119.5a.5.5,0,0,1-.942.233Z" transform="matrix(0.966, -0.259, 0.259, 0.966, 219.8, 5470.209)" fill="url(#linear-gradient-5)"/>
    <path id="합치기_3" data-name="합치기 3" d="M6.836,119.734a.5.5,0,0,1-.118-.088L.354,113.282a.5.5,0,0,1,.707-.707l5.717,5.717V.5a.5.5,0,1,1,1,0v119a.5.5,0,0,1-.942.233Z" transform="matrix(0.966, 0.259, -0.259, 0.966, 366.097, 5466.43)" fill="url(#linear-gradient-5)"/>
    <path id="패스_3825" data-name="패스 3825" d="M-42.21-12.474h1.224V0H-42.21Zm4.392,3.492q.522-.144,1.4-.324a11.008,11.008,0,0,1,2.16-.18,4.5,4.5,0,0,1,1.773.306,2.724,2.724,0,0,1,1.134.873,3.562,3.562,0,0,1,.6,1.359,7.885,7.885,0,0,1,.18,1.746V0h-1.17V-4.824A8.813,8.813,0,0,0-31.869-6.5a2.792,2.792,0,0,0-.45-1.116,1.749,1.749,0,0,0-.828-.621,3.761,3.761,0,0,0-1.287-.189,9.845,9.845,0,0,0-1.431.09,4.385,4.385,0,0,0-.783.162V0h-1.17Zm11.34-.324h3.708v.99h-3.708v4.95a5.028,5.028,0,0,0,.135,1.287,1.8,1.8,0,0,0,.387.765,1.227,1.227,0,0,0,.612.36,3.264,3.264,0,0,0,.792.09,3.412,3.412,0,0,0,1.188-.171,5.172,5.172,0,0,0,.7-.315l.288.972a4.232,4.232,0,0,1-.882.369A4.359,4.359,0,0,1-24.624.2a4.061,4.061,0,0,1-1.449-.225,2.1,2.1,0,0,1-.936-.684A2.8,2.8,0,0,1-27.5-1.854a7.958,7.958,0,0,1-.144-1.62v-8.568l1.17-.216Zm5.31,4.644A5.908,5.908,0,0,1-20.817-6.8,4.7,4.7,0,0,1-19.9-8.316a3.614,3.614,0,0,1,1.3-.909,3.948,3.948,0,0,1,1.5-.3,3.509,3.509,0,0,1,2.727,1.116,4.977,4.977,0,0,1,1.017,3.438q0,.144-.009.288t-.027.27h-6.534a4.115,4.115,0,0,0,.846,2.628,3.158,3.158,0,0,0,2.52.918,5.092,5.092,0,0,0,1.512-.18,6.311,6.311,0,0,0,.81-.306l.216,1.008A4.863,4.863,0,0,1-14.967,0,5.963,5.963,0,0,1-16.6.2a5.423,5.423,0,0,1-2.088-.36A3.737,3.737,0,0,1-20.106-1.17a3.985,3.985,0,0,1-.81-1.539A7.158,7.158,0,0,1-21.168-4.662Zm6.606-.738a3.7,3.7,0,0,0-.684-2.268,2.216,2.216,0,0,0-1.836-.81,2.445,2.445,0,0,0-1.125.252,2.857,2.857,0,0,0-.864.675,3.135,3.135,0,0,0-.576.981A4.024,4.024,0,0,0-19.89-5.4Zm6.984-4.086a6.3,6.3,0,0,1,1.089.09,3.339,3.339,0,0,1,.711.18l-.234,1.008A2.6,2.6,0,0,0-6.6-8.361a6.678,6.678,0,0,0-1.161-.081,5.5,5.5,0,0,0-1.215.108,3.35,3.35,0,0,0-.6.18V0h-1.17V-8.874a8.629,8.629,0,0,1,1.242-.4A7.72,7.72,0,0,1-7.578-9.486Zm6.5,8.64q.684,0,1.2-.045A8.186,8.186,0,0,0,.99-1.008V-4.284a3.588,3.588,0,0,0-.63-.189,5.577,5.577,0,0,0-1.188-.1,6.75,6.75,0,0,0-.9.063,2.6,2.6,0,0,0-.864.27,1.792,1.792,0,0,0-.648.567,1.632,1.632,0,0,0-.252.954,2.046,2.046,0,0,0,.171.882,1.425,1.425,0,0,0,.486.576,2.159,2.159,0,0,0,.756.315A4.58,4.58,0,0,0-1.08-.846Zm-.108-8.676a4.122,4.122,0,0,1,1.557.261,2.673,2.673,0,0,1,1.035.72A2.834,2.834,0,0,1,1.98-7.452a4.963,4.963,0,0,1,.18,1.368V-.216A5.253,5.253,0,0,1,1.638-.1Q1.3-.036.846.036t-1,.117Q-.7.2-1.278.2A5.376,5.376,0,0,1-2.637.036a3,3,0,0,1-1.08-.513,2.421,2.421,0,0,1-.72-.9A3.107,3.107,0,0,1-4.7-2.718a2.72,2.72,0,0,1,.288-1.3,2.452,2.452,0,0,1,.81-.891,3.633,3.633,0,0,1,1.242-.513A7.131,7.131,0,0,1-.792-5.58q.252,0,.531.027t.54.072q.261.045.45.09A1.373,1.373,0,0,1,.99-5.31v-.576a6.09,6.09,0,0,0-.072-.945A2.069,2.069,0,0,0,.6-7.659a1.748,1.748,0,0,0-.684-.594,2.563,2.563,0,0,0-1.161-.225,6,6,0,0,0-1.53.144q-.5.144-.738.234l-.162-1.026a4.34,4.34,0,0,1,.945-.27A8.082,8.082,0,0,1-1.188-9.522ZM9,.2A4.966,4.966,0,0,1,7.092-.144a3.589,3.589,0,0,1-1.377-.981,4.386,4.386,0,0,1-.837-1.53A6.383,6.383,0,0,1,4.59-4.626a6.35,6.35,0,0,1,.3-2,4.5,4.5,0,0,1,.855-1.548,3.779,3.779,0,0,1,1.35-1,4.353,4.353,0,0,1,1.782-.351,7.5,7.5,0,0,1,1.413.126,3.555,3.555,0,0,1,1.017.324L11-8.064a3.779,3.779,0,0,0-.81-.288A5.372,5.372,0,0,0,8.982-8.46a2.832,2.832,0,0,0-2.349,1,4.43,4.43,0,0,0-.8,2.835,6.043,6.043,0,0,0,.18,1.521A3.064,3.064,0,0,0,6.6-1.917a2.737,2.737,0,0,0,1.044.774A3.884,3.884,0,0,0,9.2-.864a4.056,4.056,0,0,0,1.269-.171,5.127,5.127,0,0,0,.747-.3l.252,1.008a4.391,4.391,0,0,1-1.017.351A6.028,6.028,0,0,1,9,.2Zm5.526-9.5h3.708v.99H14.526v4.95a5.028,5.028,0,0,0,.135,1.287,1.8,1.8,0,0,0,.387.765,1.227,1.227,0,0,0,.612.36,3.264,3.264,0,0,0,.792.09,3.412,3.412,0,0,0,1.188-.171,5.172,5.172,0,0,0,.7-.315l.288.972a4.232,4.232,0,0,1-.882.369A4.359,4.359,0,0,1,16.38.2a4.061,4.061,0,0,1-1.449-.225A2.1,2.1,0,0,1,14-.711,2.8,2.8,0,0,1,13.5-1.854a7.958,7.958,0,0,1-.144-1.62v-8.568l1.17-.216ZM21.564,0h-1.17V-9.306h1.17Zm.27-12.114a.87.87,0,0,1-.252.657.849.849,0,0,1-.612.243.849.849,0,0,1-.612-.243.87.87,0,0,1-.252-.657.87.87,0,0,1,.252-.657.849.849,0,0,1,.612-.243.849.849,0,0,1,.612.243A.87.87,0,0,1,21.834-12.114ZM32.6-4.644a6.017,6.017,0,0,1-.315,2,4.456,4.456,0,0,1-.882,1.53,4.017,4.017,0,0,1-1.341.981,4.092,4.092,0,0,1-1.71.351,4.092,4.092,0,0,1-1.71-.351A4.017,4.017,0,0,1,25.3-1.116a4.456,4.456,0,0,1-.882-1.53,6.016,6.016,0,0,1-.315-2,6.016,6.016,0,0,1,.315-2A4.555,4.555,0,0,1,25.3-8.181a3.961,3.961,0,0,1,1.341-.99,4.092,4.092,0,0,1,1.71-.351,4.092,4.092,0,0,1,1.71.351,3.961,3.961,0,0,1,1.341.99,4.555,4.555,0,0,1,.882,1.539A6.017,6.017,0,0,1,32.6-4.644Zm-1.242,0a4.393,4.393,0,0,0-.81-2.781,2.641,2.641,0,0,0-2.2-1.035,2.641,2.641,0,0,0-2.2,1.035,4.393,4.393,0,0,0-.81,2.781,4.354,4.354,0,0,0,.81,2.772,2.649,2.649,0,0,0,2.2,1.026,2.649,2.649,0,0,0,2.2-1.026A4.354,4.354,0,0,0,31.356-4.644Zm3.78-4.338q.522-.144,1.4-.324a11.008,11.008,0,0,1,2.16-.18,4.5,4.5,0,0,1,1.773.306,2.724,2.724,0,0,1,1.134.873,3.562,3.562,0,0,1,.6,1.359A7.885,7.885,0,0,1,42.39-5.2V0H41.22V-4.824A8.813,8.813,0,0,0,41.085-6.5a2.792,2.792,0,0,0-.45-1.116,1.749,1.749,0,0,0-.828-.621,3.761,3.761,0,0,0-1.287-.189,9.845,9.845,0,0,0-1.431.09,4.385,4.385,0,0,0-.783.162V0h-1.17Z" transform="translate(357 5822.498)" fill="url(#linear-gradient-8)"/>
    <g id="그룹_481" data-name="그룹 481" transform="translate(-660 -125.516)">
      <circle id="타원_13" data-name="타원 13" cx="100" cy="100" r="100" transform="translate(770 5372)" fill="#a265ff" opacity="0.5"/>
      <circle id="타원_14" data-name="타원 14" cx="100" cy="100" r="100" transform="translate(950 5372)" fill="#658eff" opacity="0.5"/>
    </g>
    <text id="Creator" transform="translate(210 5358.484)" fill="#fff" font-size="32" font-family="Ubuntu-Bold, Ubuntu" font-weight="700"><tspan x="-58.4" y="0">Creator</tspan></text>
    <text id="Holder_User" data-name="Holder
User" transform="translate(390 5340.484)" fill="#fff" font-size="32" font-family="Ubuntu-Bold, Ubuntu" font-weight="700"><tspan x="-52.272" y="0">Holder</tspan><tspan x="-35.168" y="36">User</tspan></text>
    <path id="패스_3827" data-name="패스 3827" d="M4.77-12.582a6.377,6.377,0,0,1,3.942,1.008,3.414,3.414,0,0,1,1.3,2.862A3.97,3.97,0,0,1,9.63-6.9,3.077,3.077,0,0,1,8.55-5.7a4.9,4.9,0,0,1-1.719.666,11.56,11.56,0,0,1-2.3.207H2.844V0H1.62V-12.24A8.758,8.758,0,0,1,3.141-12.5Q4.014-12.582,4.77-12.582Zm.054,1.062q-.684,0-1.161.045t-.819.081v5.508H4.392A12.464,12.464,0,0,0,6.183-6a3.989,3.989,0,0,0,1.368-.432,2.183,2.183,0,0,0,.873-.873A2.937,2.937,0,0,0,8.73-8.73,2.567,2.567,0,0,0,8.4-10.1a2.458,2.458,0,0,0-.882-.855,3.865,3.865,0,0,0-1.251-.441A8.136,8.136,0,0,0,4.824-11.52ZM14.994-.846q.684,0,1.2-.045a8.186,8.186,0,0,0,.873-.117V-4.284a3.588,3.588,0,0,0-.63-.189,5.577,5.577,0,0,0-1.188-.1,6.75,6.75,0,0,0-.9.063,2.6,2.6,0,0,0-.864.27,1.792,1.792,0,0,0-.648.567,1.632,1.632,0,0,0-.252.954,2.046,2.046,0,0,0,.171.882,1.425,1.425,0,0,0,.486.576,2.159,2.159,0,0,0,.756.315A4.58,4.58,0,0,0,14.994-.846Zm-.108-8.676a4.122,4.122,0,0,1,1.557.261,2.673,2.673,0,0,1,1.035.72,2.834,2.834,0,0,1,.576,1.089,4.963,4.963,0,0,1,.18,1.368V-.216a5.253,5.253,0,0,1-.522.117q-.342.063-.792.135t-1,.117Q15.372.2,14.8.2A5.376,5.376,0,0,1,13.437.036a3,3,0,0,1-1.08-.513,2.421,2.421,0,0,1-.72-.9,3.107,3.107,0,0,1-.261-1.341,2.72,2.72,0,0,1,.288-1.3,2.452,2.452,0,0,1,.81-.891,3.633,3.633,0,0,1,1.242-.513,7.131,7.131,0,0,1,1.566-.162q.252,0,.531.027t.54.072q.261.045.45.09a1.373,1.373,0,0,1,.261.081v-.576a6.091,6.091,0,0,0-.072-.945,2.069,2.069,0,0,0-.315-.828,1.748,1.748,0,0,0-.684-.594,2.563,2.563,0,0,0-1.161-.225,6,6,0,0,0-1.53.144q-.5.144-.738.234L12.4-9.126a4.34,4.34,0,0,1,.945-.27A8.082,8.082,0,0,1,14.886-9.522Zm9.5.036a6.3,6.3,0,0,1,1.089.09,3.339,3.339,0,0,1,.711.18l-.234,1.008a2.6,2.6,0,0,0-.585-.153,6.678,6.678,0,0,0-1.161-.081,5.5,5.5,0,0,0-1.215.108,3.35,3.35,0,0,0-.6.18V0h-1.17V-8.874a8.629,8.629,0,0,1,1.242-.4A7.72,7.72,0,0,1,24.39-9.486Zm4.662.18H32.76v.99H29.052v4.95a5.028,5.028,0,0,0,.135,1.287,1.8,1.8,0,0,0,.387.765,1.227,1.227,0,0,0,.612.36,3.264,3.264,0,0,0,.792.09,3.412,3.412,0,0,0,1.188-.171,5.172,5.172,0,0,0,.7-.315l.288.972a4.232,4.232,0,0,1-.882.369A4.359,4.359,0,0,1,30.906.2a4.061,4.061,0,0,1-1.449-.225,2.1,2.1,0,0,1-.936-.684,2.8,2.8,0,0,1-.495-1.143,7.958,7.958,0,0,1-.144-1.62v-8.568l1.17-.216ZM36.09,0H34.92V-9.306h1.17Zm.27-12.114a.87.87,0,0,1-.252.657.849.849,0,0,1-.612.243.849.849,0,0,1-.612-.243.87.87,0,0,1-.252-.657.87.87,0,0,1,.252-.657.849.849,0,0,1,.612-.243.849.849,0,0,1,.612.243A.87.87,0,0,1,36.36-12.114ZM43.038.2A4.966,4.966,0,0,1,41.13-.144a3.589,3.589,0,0,1-1.377-.981,4.386,4.386,0,0,1-.837-1.53,6.383,6.383,0,0,1-.288-1.971,6.35,6.35,0,0,1,.3-2,4.5,4.5,0,0,1,.855-1.548,3.779,3.779,0,0,1,1.35-1,4.353,4.353,0,0,1,1.782-.351,7.5,7.5,0,0,1,1.413.126,3.555,3.555,0,0,1,1.017.324l-.306,1.008a3.779,3.779,0,0,0-.81-.288A5.372,5.372,0,0,0,43.02-8.46a2.832,2.832,0,0,0-2.349,1,4.43,4.43,0,0,0-.8,2.835,6.043,6.043,0,0,0,.18,1.521,3.064,3.064,0,0,0,.585,1.188,2.737,2.737,0,0,0,1.044.774,3.884,3.884,0,0,0,1.557.279,4.056,4.056,0,0,0,1.269-.171,5.127,5.127,0,0,0,.747-.3L45.5-.324a4.391,4.391,0,0,1-1.017.351A6.028,6.028,0,0,1,43.038.2Zm5.6-.2h-1.17V-9.306h1.17Zm.27-12.114a.87.87,0,0,1-.252.657.849.849,0,0,1-.612.243.849.849,0,0,1-.612-.243.87.87,0,0,1-.252-.657.87.87,0,0,1,.252-.657.849.849,0,0,1,.612-.243.849.849,0,0,1,.612.243A.87.87,0,0,1,48.906-12.114Zm4,10.44a3.934,3.934,0,0,0,.405.27,3.857,3.857,0,0,0,.567.27,4.587,4.587,0,0,0,.7.207,3.771,3.771,0,0,0,.792.081,3.18,3.18,0,0,0,1.449-.3,2.534,2.534,0,0,0,.945-.81,3.438,3.438,0,0,0,.522-1.206,6.428,6.428,0,0,0,.162-1.467,3.971,3.971,0,0,0-.918-2.817,3.171,3.171,0,0,0-2.43-.981,9.626,9.626,0,0,0-1.4.081,5.181,5.181,0,0,0-.8.171Zm0,5h-1.17V-8.982a10.524,10.524,0,0,1,1.332-.342,10.75,10.75,0,0,1,2.052-.162,5,5,0,0,1,1.863.333,4.027,4.027,0,0,1,1.44.963,4.377,4.377,0,0,1,.936,1.53,5.832,5.832,0,0,1,.333,2.034,6.509,6.509,0,0,1-.279,1.953,4.354,4.354,0,0,1-.819,1.53,3.769,3.769,0,0,1-1.323,1,4.243,4.243,0,0,1-1.791.36,4.41,4.41,0,0,1-1.593-.261,4.164,4.164,0,0,1-.981-.5ZM65.16-.846q.684,0,1.2-.045a8.186,8.186,0,0,0,.873-.117V-4.284a3.588,3.588,0,0,0-.63-.189,5.577,5.577,0,0,0-1.188-.1,6.75,6.75,0,0,0-.9.063,2.6,2.6,0,0,0-.864.27A1.792,1.792,0,0,0,63-3.672a1.632,1.632,0,0,0-.252.954,2.046,2.046,0,0,0,.171.882,1.425,1.425,0,0,0,.486.576,2.159,2.159,0,0,0,.756.315A4.579,4.579,0,0,0,65.16-.846Zm-.108-8.676a4.122,4.122,0,0,1,1.557.261,2.673,2.673,0,0,1,1.035.72,2.834,2.834,0,0,1,.576,1.089,4.963,4.963,0,0,1,.18,1.368V-.216a5.253,5.253,0,0,1-.522.117q-.342.063-.792.135t-1,.117Q65.538.2,64.962.2A5.376,5.376,0,0,1,63.6.036a3,3,0,0,1-1.08-.513,2.421,2.421,0,0,1-.72-.9,3.107,3.107,0,0,1-.261-1.341,2.72,2.72,0,0,1,.288-1.3,2.452,2.452,0,0,1,.81-.891,3.633,3.633,0,0,1,1.242-.513,7.132,7.132,0,0,1,1.566-.162q.252,0,.531.027t.54.072q.261.045.45.09a1.372,1.372,0,0,1,.261.081v-.576a6.091,6.091,0,0,0-.072-.945,2.069,2.069,0,0,0-.315-.828,1.748,1.748,0,0,0-.684-.594A2.563,2.563,0,0,0,65-8.478a6,6,0,0,0-1.53.144q-.5.144-.738.234l-.162-1.026a4.34,4.34,0,0,1,.945-.27A8.082,8.082,0,0,1,65.052-9.522Zm7.434.216h3.708v.99H72.486v4.95a5.028,5.028,0,0,0,.135,1.287,1.8,1.8,0,0,0,.387.765,1.227,1.227,0,0,0,.612.36,3.264,3.264,0,0,0,.792.09A3.412,3.412,0,0,0,75.6-1.035a5.172,5.172,0,0,0,.7-.315l.288.972a4.232,4.232,0,0,1-.882.369A4.359,4.359,0,0,1,74.34.2a4.061,4.061,0,0,1-1.449-.225,2.1,2.1,0,0,1-.936-.684,2.8,2.8,0,0,1-.495-1.143,7.958,7.958,0,0,1-.144-1.62v-8.568l1.17-.216ZM79.524,0h-1.17V-9.306h1.17Zm.27-12.114a.87.87,0,0,1-.252.657.849.849,0,0,1-.612.243.849.849,0,0,1-.612-.243.87.87,0,0,1-.252-.657.87.87,0,0,1,.252-.657.849.849,0,0,1,.612-.243.849.849,0,0,1,.612.243A.87.87,0,0,1,79.794-12.114Zm10.764,7.47a6.017,6.017,0,0,1-.315,2,4.456,4.456,0,0,1-.882,1.53,4.017,4.017,0,0,1-1.341.981,4.092,4.092,0,0,1-1.71.351A4.092,4.092,0,0,1,84.6-.135a4.017,4.017,0,0,1-1.341-.981,4.456,4.456,0,0,1-.882-1.53,6.017,6.017,0,0,1-.315-2,6.017,6.017,0,0,1,.315-2,4.555,4.555,0,0,1,.882-1.539,3.961,3.961,0,0,1,1.341-.99,4.092,4.092,0,0,1,1.71-.351,4.092,4.092,0,0,1,1.71.351,3.961,3.961,0,0,1,1.341.99,4.555,4.555,0,0,1,.882,1.539A6.017,6.017,0,0,1,90.558-4.644Zm-1.242,0a4.393,4.393,0,0,0-.81-2.781,2.641,2.641,0,0,0-2.2-1.035,2.641,2.641,0,0,0-2.2,1.035,4.393,4.393,0,0,0-.81,2.781,4.354,4.354,0,0,0,.81,2.772,2.649,2.649,0,0,0,2.2,1.026,2.649,2.649,0,0,0,2.2-1.026A4.354,4.354,0,0,0,89.316-4.644ZM93.1-8.982q.522-.144,1.4-.324a11.008,11.008,0,0,1,2.16-.18,4.5,4.5,0,0,1,1.773.306,2.724,2.724,0,0,1,1.134.873,3.562,3.562,0,0,1,.6,1.359,7.884,7.884,0,0,1,.18,1.746V0H99.18V-4.824A8.814,8.814,0,0,0,99.045-6.5a2.792,2.792,0,0,0-.45-1.116,1.749,1.749,0,0,0-.828-.621,3.761,3.761,0,0,0-1.287-.189,9.845,9.845,0,0,0-1.431.09,4.385,4.385,0,0,0-.783.162V0H93.1Z" transform="translate(378.38 5522.484)" fill="url(#linear-gradient-9)"/>
    <path id="패스_3828" data-name="패스 3828" d="M10.116,0q-.347-.626-.871-1.477T8.079-3.283q-.641-.955-1.338-1.976T5.353-7.243Q4.662-8.208,4-9.051T2.826-10.507V0H1.62V-12.474h.972q.919,1.025,1.969,2.369T6.619-7.367Q7.628-5.973,8.5-4.642t1.434,2.32V-12.474h1.206V0Zm4.266,0V-12.474h7.11v1.062H15.606V-7.02h5.22v1.062h-5.22V0ZM31.914-12.474v1.062h-4V0H26.694V-11.412h-4v-1.062ZM45.021-3.24A4.4,4.4,0,0,0,45.7-4.581a8.3,8.3,0,0,0,.324-1.5l1.008.126a8.075,8.075,0,0,1-.4,1.782,5.543,5.543,0,0,1-.9,1.659q.725.735,1.256,1.347A6.82,6.82,0,0,1,47.826,0H46.5A6.089,6.089,0,0,0,45.9-.819q-.353-.405-.816-.873A4.858,4.858,0,0,1,43.4-.333a5,5,0,0,1-2.245.5,4.774,4.774,0,0,1-1.848-.315A3.442,3.442,0,0,1,38.1-.963a2.976,2.976,0,0,1-.658-1.089,3.68,3.68,0,0,1-.2-1.17,3.467,3.467,0,0,1,.225-1.287,3.544,3.544,0,0,1,.6-1.008,4.43,4.43,0,0,1,.882-.783,6.092,6.092,0,0,1,1.015-.561,5.191,5.191,0,0,1-1.078-1.473,3.444,3.444,0,0,1-.315-1.422,3.344,3.344,0,0,1,.225-1.26,2.666,2.666,0,0,1,.63-.945,2.664,2.664,0,0,1,.963-.585,3.581,3.581,0,0,1,1.206-.2,3.346,3.346,0,0,1,1.206.207,2.6,2.6,0,0,1,.9.558,2.439,2.439,0,0,1,.558.837,2.74,2.74,0,0,1,.2,1.044,2.939,2.939,0,0,1-.234,1.2,3.459,3.459,0,0,1-.612.945,4.546,4.546,0,0,1-.873.738,9.771,9.771,0,0,1-1.052.6ZM41.148-.864a4.227,4.227,0,0,0,1.863-.4A3.732,3.732,0,0,0,44.386-2.4l-3.7-3.736q-.369.158-.765.364a2.5,2.5,0,0,0-.711.556,2.849,2.849,0,0,0-.513.837,3.045,3.045,0,0,0-.2,1.152,2.586,2.586,0,0,0,.144.837,2.112,2.112,0,0,0,.45.756,2.323,2.323,0,0,0,.81.549A3.155,3.155,0,0,0,41.148-.864Zm2.2-9.221a1.6,1.6,0,0,0-.477-1.176,1.671,1.671,0,0,0-1.233-.476,1.849,1.849,0,0,0-1.4.495,1.877,1.877,0,0,0-.477,1.359,3.028,3.028,0,0,0,.279,1.251,4.714,4.714,0,0,0,.97,1.322,5.4,5.4,0,0,0,1.7-1.089A2.276,2.276,0,0,0,43.344-10.085ZM61.65-12.474v1.062h-4V0H56.43V-11.412h-4v-1.062Zm9.018,7.83a6.017,6.017,0,0,1-.315,2,4.456,4.456,0,0,1-.882,1.53,4.017,4.017,0,0,1-1.341.981,4.092,4.092,0,0,1-1.71.351,4.092,4.092,0,0,1-1.71-.351,4.017,4.017,0,0,1-1.341-.981,4.456,4.456,0,0,1-.882-1.53,6.017,6.017,0,0,1-.315-2,6.017,6.017,0,0,1,.315-2,4.555,4.555,0,0,1,.882-1.539,3.962,3.962,0,0,1,1.341-.99,4.092,4.092,0,0,1,1.71-.351,4.092,4.092,0,0,1,1.71.351,3.961,3.961,0,0,1,1.341.99,4.555,4.555,0,0,1,.882,1.539A6.017,6.017,0,0,1,70.668-4.644Zm-1.242,0a4.393,4.393,0,0,0-.81-2.781,2.641,2.641,0,0,0-2.2-1.035,2.641,2.641,0,0,0-2.2,1.035,4.393,4.393,0,0,0-.81,2.781,4.354,4.354,0,0,0,.81,2.772,2.649,2.649,0,0,0,2.2,1.026,2.649,2.649,0,0,0,2.2-1.026A4.354,4.354,0,0,0,69.426-4.644Zm6.12-.423a13.458,13.458,0,0,1,1.285,1.035q.648.587,1.278,1.272T79.3-1.355A15.877,15.877,0,0,1,80.244,0H78.838a11.476,11.476,0,0,0-.98-1.392,16.041,16.041,0,0,0-1.171-1.285q-.613-.6-1.225-1.1a6.891,6.891,0,0,0-1.086-.745V0h-1.17V-13.752l1.17-.216V-5.3q.375-.322.936-.877t1.142-1.117q.581-.562,1.1-1.089t.867-.925h1.43q-.413.433-.948.96l-1.115,1.1L76.643-6.122Q76.081-5.568,75.546-5.067Zm5.742.405A5.908,5.908,0,0,1,81.639-6.8a4.7,4.7,0,0,1,.918-1.521,3.614,3.614,0,0,1,1.3-.909,3.948,3.948,0,0,1,1.5-.3,3.509,3.509,0,0,1,2.727,1.116A4.977,4.977,0,0,1,89.1-4.968q0,.144-.009.288t-.027.27H82.53a4.115,4.115,0,0,0,.846,2.628,3.158,3.158,0,0,0,2.52.918,5.092,5.092,0,0,0,1.512-.18,6.311,6.311,0,0,0,.81-.306l.216,1.008A4.863,4.863,0,0,1,87.489,0,5.963,5.963,0,0,1,85.86.2a5.423,5.423,0,0,1-2.088-.36A3.737,3.737,0,0,1,82.35-1.17a3.985,3.985,0,0,1-.81-1.539A7.159,7.159,0,0,1,81.288-4.662ZM87.894-5.4a3.7,3.7,0,0,0-.684-2.268,2.216,2.216,0,0,0-1.836-.81,2.445,2.445,0,0,0-1.125.252,2.857,2.857,0,0,0-.864.675,3.136,3.136,0,0,0-.576.981,4.024,4.024,0,0,0-.243,1.17ZM91.71-8.982q.522-.144,1.4-.324a11.008,11.008,0,0,1,2.16-.18,4.5,4.5,0,0,1,1.773.306,2.724,2.724,0,0,1,1.134.873,3.562,3.562,0,0,1,.6,1.359,7.884,7.884,0,0,1,.18,1.746V0h-1.17V-4.824A8.814,8.814,0,0,0,97.659-6.5a2.792,2.792,0,0,0-.45-1.116,1.749,1.749,0,0,0-.828-.621,3.761,3.761,0,0,0-1.287-.189,9.845,9.845,0,0,0-1.431.09,4.385,4.385,0,0,0-.783.162V0H91.71Zm22.338-3.492v1.062h-4V0h-1.224V-11.412h-4v-1.062Zm4.518,2.988a6.3,6.3,0,0,1,1.089.09,3.339,3.339,0,0,1,.711.18l-.234,1.008a2.6,2.6,0,0,0-.585-.153,6.678,6.678,0,0,0-1.161-.081,5.5,5.5,0,0,0-1.215.108,3.35,3.35,0,0,0-.6.18V0H115.4V-8.874a8.63,8.63,0,0,1,1.242-.4A7.72,7.72,0,0,1,118.566-9.486Zm6.5,8.64q.684,0,1.2-.045a8.186,8.186,0,0,0,.873-.117V-4.284a3.588,3.588,0,0,0-.63-.189,5.577,5.577,0,0,0-1.188-.1,6.75,6.75,0,0,0-.9.063,2.6,2.6,0,0,0-.864.27,1.792,1.792,0,0,0-.648.567,1.632,1.632,0,0,0-.252.954,2.046,2.046,0,0,0,.171.882,1.425,1.425,0,0,0,.486.576,2.159,2.159,0,0,0,.756.315A4.579,4.579,0,0,0,125.064-.846Zm-.108-8.676a4.122,4.122,0,0,1,1.557.261,2.673,2.673,0,0,1,1.035.72,2.834,2.834,0,0,1,.576,1.089,4.963,4.963,0,0,1,.18,1.368V-.216a5.252,5.252,0,0,1-.522.117q-.342.063-.792.135t-1,.117Q125.442.2,124.866.2a5.376,5.376,0,0,1-1.359-.162,3,3,0,0,1-1.08-.513,2.421,2.421,0,0,1-.72-.9,3.107,3.107,0,0,1-.261-1.341,2.72,2.72,0,0,1,.288-1.3,2.452,2.452,0,0,1,.81-.891,3.633,3.633,0,0,1,1.242-.513,7.131,7.131,0,0,1,1.566-.162q.252,0,.531.027t.54.072q.261.045.45.09a1.372,1.372,0,0,1,.261.081v-.576a6.091,6.091,0,0,0-.072-.945,2.069,2.069,0,0,0-.315-.828,1.748,1.748,0,0,0-.684-.594,2.563,2.563,0,0,0-1.161-.225,6,6,0,0,0-1.53.144q-.5.144-.738.234l-.162-1.026a4.34,4.34,0,0,1,.945-.27A8.082,8.082,0,0,1,124.956-9.522Zm6.336.54q.522-.144,1.4-.324a11.008,11.008,0,0,1,2.16-.18,4.5,4.5,0,0,1,1.773.306,2.724,2.724,0,0,1,1.134.873,3.562,3.562,0,0,1,.6,1.359,7.884,7.884,0,0,1,.18,1.746V0h-1.17V-4.824a8.812,8.812,0,0,0-.135-1.674,2.792,2.792,0,0,0-.45-1.116,1.749,1.749,0,0,0-.828-.621,3.761,3.761,0,0,0-1.287-.189,9.844,9.844,0,0,0-1.431.09,4.385,4.385,0,0,0-.783.162V0h-1.17Zm12.15,8.154a3.672,3.672,0,0,0,1.665-.333,1.162,1.162,0,0,0,.657-1.125,1.624,1.624,0,0,0-.117-.648,1.275,1.275,0,0,0-.387-.486,3.321,3.321,0,0,0-.711-.414q-.441-.2-1.089-.468-.522-.216-.99-.441a4.054,4.054,0,0,1-.828-.522,2.279,2.279,0,0,1-.576-.711,2.157,2.157,0,0,1-.216-1.008A2.262,2.262,0,0,1,141.7-8.82a3.6,3.6,0,0,1,2.349-.7,6.382,6.382,0,0,1,1.575.162,5,5,0,0,1,.873.288l-.27,1.044a7.02,7.02,0,0,0-.729-.288A4.788,4.788,0,0,0,144-8.5a3.31,3.31,0,0,0-.747.081,1.981,1.981,0,0,0-.621.253,1.353,1.353,0,0,0-.432.433,1.193,1.193,0,0,0-.162.64,1.365,1.365,0,0,0,.144.649,1.441,1.441,0,0,0,.423.478,3.561,3.561,0,0,0,.684.387q.405.179.927.394.54.215,1.035.439a3.8,3.8,0,0,1,.873.539,2.5,2.5,0,0,1,.612.756,2.345,2.345,0,0,1,.234,1.107,2.165,2.165,0,0,1-.945,1.908,4.508,4.508,0,0,1-2.583.648A6.487,6.487,0,0,1,141.57.009a7.262,7.262,0,0,1-.864-.315l.306-1.062a1.991,1.991,0,0,0,.234.117,4.929,4.929,0,0,0,.486.18,5.268,5.268,0,0,0,.729.171A5.907,5.907,0,0,0,143.442-.828Zm8.73-.018q.684,0,1.2-.045a8.187,8.187,0,0,0,.873-.117V-4.284a3.588,3.588,0,0,0-.63-.189,5.577,5.577,0,0,0-1.188-.1,6.75,6.75,0,0,0-.9.063,2.6,2.6,0,0,0-.864.27,1.792,1.792,0,0,0-.648.567,1.632,1.632,0,0,0-.252.954,2.046,2.046,0,0,0,.171.882,1.425,1.425,0,0,0,.486.576,2.159,2.159,0,0,0,.756.315A4.579,4.579,0,0,0,152.172-.846Zm-.108-8.676a4.122,4.122,0,0,1,1.557.261,2.672,2.672,0,0,1,1.035.72,2.834,2.834,0,0,1,.576,1.089,4.963,4.963,0,0,1,.18,1.368V-.216a5.254,5.254,0,0,1-.522.117q-.342.063-.792.135t-1,.117Q152.55.2,151.974.2a5.376,5.376,0,0,1-1.359-.162,3,3,0,0,1-1.08-.513,2.421,2.421,0,0,1-.72-.9,3.107,3.107,0,0,1-.261-1.341,2.72,2.72,0,0,1,.288-1.3,2.452,2.452,0,0,1,.81-.891,3.633,3.633,0,0,1,1.242-.513,7.131,7.131,0,0,1,1.566-.162q.252,0,.531.027t.54.072q.261.045.45.09a1.373,1.373,0,0,1,.261.081v-.576a6.09,6.09,0,0,0-.072-.945,2.069,2.069,0,0,0-.315-.828,1.749,1.749,0,0,0-.684-.594,2.563,2.563,0,0,0-1.161-.225,6,6,0,0,0-1.53.144q-.5.144-.738.234l-.162-1.026a4.339,4.339,0,0,1,.945-.27A8.082,8.082,0,0,1,152.064-9.522ZM162.252.2a4.966,4.966,0,0,1-1.908-.342,3.589,3.589,0,0,1-1.377-.981,4.386,4.386,0,0,1-.837-1.53,6.383,6.383,0,0,1-.288-1.971,6.35,6.35,0,0,1,.3-2,4.5,4.5,0,0,1,.855-1.548,3.779,3.779,0,0,1,1.35-1,4.353,4.353,0,0,1,1.782-.351,7.5,7.5,0,0,1,1.413.126,3.555,3.555,0,0,1,1.017.324l-.306,1.008a3.779,3.779,0,0,0-.81-.288,5.372,5.372,0,0,0-1.206-.108,2.832,2.832,0,0,0-2.349,1,4.43,4.43,0,0,0-.8,2.835,6.042,6.042,0,0,0,.18,1.521,3.064,3.064,0,0,0,.585,1.188,2.737,2.737,0,0,0,1.044.774,3.884,3.884,0,0,0,1.557.279,4.056,4.056,0,0,0,1.269-.171,5.127,5.127,0,0,0,.747-.3l.252,1.008A4.391,4.391,0,0,1,163.7.027,6.028,6.028,0,0,1,162.252.2Zm5.526-9.5h3.708v.99h-3.708v4.95a5.028,5.028,0,0,0,.135,1.287,1.8,1.8,0,0,0,.387.765,1.227,1.227,0,0,0,.612.36,3.264,3.264,0,0,0,.792.09,3.412,3.412,0,0,0,1.188-.171,5.172,5.172,0,0,0,.7-.315l.288.972A4.232,4.232,0,0,1,171-.009,4.359,4.359,0,0,1,169.632.2a4.061,4.061,0,0,1-1.449-.225,2.1,2.1,0,0,1-.936-.684,2.8,2.8,0,0,1-.5-1.143,7.958,7.958,0,0,1-.144-1.62v-8.568l1.17-.216ZM174.816,0h-1.17V-9.306h1.17Zm.27-12.114a.87.87,0,0,1-.252.657.849.849,0,0,1-.612.243.849.849,0,0,1-.612-.243.87.87,0,0,1-.252-.657.87.87,0,0,1,.252-.657.849.849,0,0,1,.612-.243.849.849,0,0,1,.612.243A.87.87,0,0,1,175.086-12.114Zm10.764,7.47a6.016,6.016,0,0,1-.315,2,4.456,4.456,0,0,1-.882,1.53,4.017,4.017,0,0,1-1.341.981,4.092,4.092,0,0,1-1.71.351,4.092,4.092,0,0,1-1.71-.351,4.017,4.017,0,0,1-1.341-.981,4.456,4.456,0,0,1-.882-1.53,6.017,6.017,0,0,1-.315-2,6.017,6.017,0,0,1,.315-2,4.555,4.555,0,0,1,.882-1.539,3.961,3.961,0,0,1,1.341-.99,4.092,4.092,0,0,1,1.71-.351,4.092,4.092,0,0,1,1.71.351,3.961,3.961,0,0,1,1.341.99,4.555,4.555,0,0,1,.882,1.539A6.016,6.016,0,0,1,185.85-4.644Zm-1.242,0a4.393,4.393,0,0,0-.81-2.781,2.641,2.641,0,0,0-2.2-1.035,2.641,2.641,0,0,0-2.2,1.035,4.393,4.393,0,0,0-.81,2.781,4.354,4.354,0,0,0,.81,2.772,2.649,2.649,0,0,0,2.2,1.026,2.649,2.649,0,0,0,2.2-1.026A4.354,4.354,0,0,0,184.608-4.644Zm3.78-4.338q.522-.144,1.4-.324a11.008,11.008,0,0,1,2.16-.18,4.5,4.5,0,0,1,1.773.306,2.724,2.724,0,0,1,1.134.873,3.562,3.562,0,0,1,.6,1.359,7.884,7.884,0,0,1,.18,1.746V0h-1.17V-4.824a8.812,8.812,0,0,0-.135-1.674,2.792,2.792,0,0,0-.45-1.116,1.749,1.749,0,0,0-.828-.621,3.761,3.761,0,0,0-1.287-.189,9.844,9.844,0,0,0-1.431.09,4.385,4.385,0,0,0-.783.162V0h-1.17Z" transform="translate(202 5217.484)" fill="url(#linear-gradient-10)"/>
  </g>
</svg>
